<?xml version="1.0" standalone="no"?>
<!DOCTYPE svg PUBLIC "-//W3C//DTD SVG 20010904//EN"
 "http://www.w3.org/TR/2001/REC-SVG-20010904/DTD/svg10.dtd">
<svg version="1.0" xmlns="http://www.w3.org/2000/svg"
 width="126.000000pt" height="126.000000pt" viewBox="0 0 126.000000 126.000000"
 preserveAspectRatio="xMidYMid meet">
<metadata>
Created by potrace 1.14, written by Peter Selinger 2001-2017
</metadata>
<g transform="translate(0.000000,126.000000) scale(0.100000,-0.100000)"
fill="#000000" stroke="none">
<path d="M495 1112 c-240 -70 -391 -294 -363 -537 31 -267 259 -459 523 -442
312 21 529 309 458 611 -27 117 -120 248 -220 310 -113 69 -276 93 -398 58z
m90 -263 l1 -179 -89 0 -89 0 7 56 c7 62 32 139 63 200 23 45 91 118 101 109
3 -4 6 -87 6 -186z m147 144 c52 -55 108 -206 108 -292 l0 -32 -87 3 -88 3 0
165 c0 91 1 173 3 182 5 21 25 12 64 -29z m-337 -40 c-27 -68 -46 -136 -57
-204 l-12 -79 -59 0 -59 0 6 38 c12 63 62 159 112 212 47 50 83 67 69 33z
m532 -30 c49 -50 96 -139 112 -210 l9 -43 -62 0 c-60 0 -62 1 -64 28 -5 69
-14 117 -37 184 -14 40 -25 76 -25 81 0 18 24 3 67 -40z m-590 -405 c17 -100
18 -106 42 -168 25 -65 24 -60 8 -60 -14 0 -83 69 -115 115 -21 32 -62 143
-62 170 0 12 13 15 58 15 l57 0 12 -72z m251 -113 c0 -102 -3 -185 -5 -185 -3
0 -18 9 -33 20 -58 41 -120 177 -136 300 l-7 50 91 0 90 0 0 -185z m257 168
c-2 -10 -9 -47 -15 -83 -15 -85 -70 -199 -115 -239 -20 -17 -39 -31 -43 -31
-5 0 -8 285 -3 358 1 9 26 12 90 12 80 0 89 -2 86 -17z m191 -25 c-13 -82 -76
-188 -141 -240 -14 -11 -29 -18 -32 -15 -3 3 6 40 21 81 14 42 28 101 32 133
8 85 7 83 70 83 l57 0 -7 -42z"/>
</g>
</svg>
